<?xml version="1.0" encoding="utf-8"?>
<!-- Generator: Adobe Illustrator 26.0.0, SVG Export Plug-In . SVG Version: 6.00 Build 0)  -->
<svg version="1.1" id="Capa_1" xmlns="http://www.w3.org/2000/svg" xmlns:xlink="http://www.w3.org/1999/xlink" x="0px" y="0px"
	 viewBox="0 0 300 170" style="enable-background:new 0 0 300 170;" xml:space="preserve">
<style type="text/css">
	.st0{fill:#182F50;}
	.st1{fill:#00BC70;}
	.st2{fill:#FFFFFF;}
</style>
<g>
	<path class="st0" d="M27.3,103.5H0.4l0-79.7h13.3l0,26.6l13.6,0c14.6,0,26.5,11.9,26.5,26.5S41.9,103.5,27.3,103.5 M13.6,90.3h13.6
		c7.3,0,13.3-6,13.3-13.3c0-7.3-5.9-13.3-13.3-13.3H13.6L13.6,90.3z"/>
	<polygon class="st0" points="87.6,63.6 87.6,50.4 61.2,50.4 61.2,63.6 67.8,63.6 67.8,90.2 61.2,90.2 61.2,103.5 87.6,103.5 
		87.6,90.2 81.1,90.2 81.1,63.6 	"/>
	<rect x="98.4" y="23.8" class="st0" width="13.3" height="79.8"/>
	<path class="st0" d="M174.1,103.5h-26.9c-14.6,0-26.5-11.9-26.5-26.5s11.9-26.5,26.5-26.5l13.6,0l0-26.6h13.3L174.1,103.5z
		 M147.2,63.7c-7.3,0-13.3,5.9-13.3,13.3c0,7.3,5.9,13.3,13.3,13.3h13.6l0-26.5H147.2z"/>
	<path class="st1" d="M81.2,37c0,3.7-3,6.7-6.6,6.7c-3.7,0-6.6-3-6.6-6.7c0-3.7,3-6.6,6.6-6.6C78.2,30.4,81.2,33.3,81.2,37"/>
	<path class="st0" d="M223.6,88.4l9.1,7.7c-4.9,4.7-11.4,8.7-21.9,8.5c-15.2-0.9-26.8-13.5-26.8-28.3c0-14.9,12.1-26.9,26.9-26.9
		c14.9,0,26.9,12.1,26.9,26.9v6.6h-38.9c0,0,3.5,6.4,11.4,7.9C217.7,92.2,222.4,89.1,223.6,88.4 M198.9,69.6h23.9
		c-2.3-4.2-6.8-7-12-7C205.7,62.6,201.2,65.4,198.9,69.6"/>
	<path class="st0" d="M300,103.5h-13.3V75.9c0-7.3-6-13.3-13.3-13.3c-7.3,0-13.3,6-13.3,13.3v27.7h-13.2V75.9
		c0-14.6,11.9-26.5,26.5-26.5c14.6,0,26.5,11.9,26.5,26.5V103.5z"/>
	<path class="st2" d="M297.9,48.7l-0.7-1.3c0.3-0.2,0.6-0.6,0.6-1c0-0.6-0.5-1.1-1.1-1.1h-1.1v3.4h0.6v-1.1h0.6l0.7,1.1H297.9z
		 M296,45.9h0.6c0.3,0,0.6,0.3,0.6,0.6c0,0.3-0.3,0.6-0.6,0.6H296V45.9z"/>
	<path class="st2" d="M300,50.4h-6.6v-6.6h6.6V50.4z M293.9,49.9h5.6v-5.6h-5.6V49.9z"/>
	<path class="st1" d="M9.5,138.4c0,2.9-1.8,4.9-4.4,4.9c-1.1,0-2.2-0.5-3-1.3v1.2H0.5v-13.2h1.9v4.8c0.7-0.7,1.7-1.2,2.7-1.2
		C7.6,133.5,9.5,135.5,9.5,138.4 M7.5,138.4c0-1.8-1.1-3.1-2.6-3.1c-1.5,0-2.6,1.3-2.6,3.1c0,1.8,1.1,3.1,2.6,3.1
		C6.5,141.5,7.5,140.2,7.5,138.4"/>
	<path class="st1" d="M13.3,133.7v5.8c0,1.2,0.9,2.1,2.1,2.1c1.2,0,2.1-0.8,2.1-2.1v-5.8h1.9v5.9c0,2.2-1.6,3.7-3.9,3.7
		c-2.3,0-3.9-1.5-3.9-3.7v-5.9H13.3z"/>
	<path class="st1" d="M22.2,141.4h3.2v-6h-3v-1.7h4.9v7.7h2.6v1.7h-7.7V141.4z M25.1,130.6c0-0.7,0.5-1.2,1.2-1.2
		c0.7,0,1.2,0.5,1.2,1.2c0,0.7-0.5,1.2-1.2,1.2C25.6,131.8,25.1,131.3,25.1,130.6"/>
	<path class="st1" d="M32.4,129.9h4V140c0,0.8,0.5,1.4,1.3,1.4h2.5v1.7h-2.6c-1.8,0-3.1-1.2-3.1-3v-8.5h-2.2V129.9z"/>
	<path class="st1" d="M51.3,129.9v13.2h-1.6v-1.2c-0.8,0.8-1.9,1.3-3,1.3c-2.5,0-4.4-2-4.4-4.9c0-2.9,1.8-4.9,4.4-4.9
		c0.9,0,2,0.5,2.7,1.2v-4.8H51.3z M49.6,138.4c0-1.8-1.1-3.1-2.6-3.1c-1.5,0-2.6,1.3-2.6,3.1c0,1.8,1.1,3.1,2.6,3.1
		C48.5,141.5,49.6,140.2,49.6,138.4"/>
	<path class="st1" d="M53.9,141.4h3.2v-6h-3v-1.7H59v7.7h2.6v1.7h-7.7V141.4z M56.8,130.6c0-0.7,0.5-1.2,1.2-1.2
		c0.7,0,1.2,0.5,1.2,1.2c0,0.7-0.5,1.2-1.2,1.2C57.3,131.8,56.8,131.3,56.8,130.6"/>
	<path class="st1" d="M72.2,137.3v5.8h-1.9v-5.7c0-1.2-0.9-2.1-2.1-2.1s-2.1,0.9-2.1,2.1v5.7h-1.9v-9.4h1.6v1
		c0.7-0.7,1.7-1.2,2.6-1.2C70.6,133.5,72.2,135.1,72.2,137.3"/>
	<path class="st1" d="M83,133.7v9.6c0,2.2-1.6,3.8-3.9,3.8c-0.9,0-1.9-0.3-2.6-0.8l0.7-1.5c0.4,0.3,1.2,0.5,1.8,0.5
		c1.2,0,2.1-0.9,2.1-2.1v-1c-0.7,0.7-1.7,1.2-2.7,1.2c-2.5,0-4.4-2-4.4-4.9c0-2.8,1.8-4.9,4.4-4.9c1.1,0,2.2,0.5,3,1.3v-1.2H83z
		 M81.3,138.4c0-1.8-1.1-3.1-2.6-3.1c-1.5,0-2.6,1.3-2.6,3.1c0,1.8,1.1,3.1,2.6,3.1C80.2,141.5,81.3,140.2,81.3,138.4"/>
	<path class="st1" d="M104.4,136v7.1h-1.8v-6.9c0-0.6-0.4-1-1-1c-0.6,0-0.9,0.4-0.9,1v6.9H99v-6.9c0-0.6-0.3-1-0.9-1
		c-0.6,0-1,0.4-1,1v6.9h-1.8v-9.4h1.4v0.5c0.4-0.4,0.9-0.6,1.6-0.6c0.8,0,1.5,0.3,1.9,0.9c0.4-0.6,1-0.9,1.8-0.9
		C103.5,133.5,104.4,134.6,104.4,136"/>
	<path class="st1" d="M115,138.4c0,2.9-1.9,4.9-4.6,4.9s-4.6-2-4.6-4.9c0-2.9,1.9-4.9,4.6-4.9S115,135.5,115,138.4 M107.8,138.4
		c0,1.8,1.1,3.1,2.6,3.1c1.5,0,2.6-1.3,2.6-3.1c0-1.8-1.1-3.1-2.6-3.1C108.9,135.3,107.8,136.6,107.8,138.4"/>
	<path class="st1" d="M120.7,137.4v4h2.4v1.7h-5.6v-1.7h1.4v-6h-1.4v-1.7h3v0.9c0.5-0.5,1.5-0.9,2.4-0.9h2.6v1.7h-2.7
		C121.5,135.4,120.7,136.2,120.7,137.4"/>
	<path class="st1" d="M134.4,140.2l1.2,1.2c-0.8,1-2.5,1.8-3.9,1.8c-2.7,0-4.6-2-4.6-4.9c0-2.8,1.9-4.9,4.6-4.9
		c2.6,0,4.5,1.9,4.5,5.5H129c0.2,1.5,1.3,2.5,2.7,2.5C132.7,141.5,133.7,141,134.4,140.2 M129.1,137.4h5c-0.2-1.3-1.2-2.3-2.5-2.3
		C130.3,135.1,129.4,136,129.1,137.4"/>
</g>
</svg>
