<?xml version="1.0" encoding="utf-8"?>
<!-- Generator: Adobe Illustrator 26.0.0, SVG Export Plug-In . SVG Version: 6.00 Build 0)  -->
<svg version="1.1" id="Capa_1" xmlns="http://www.w3.org/2000/svg" xmlns:xlink="http://www.w3.org/1999/xlink" x="0px" y="0px"
	 viewBox="0 0 293.3 351.6" style="enable-background:new 0 0 293.3 351.6;" xml:space="preserve">
<style type="text/css">
	.st0{fill:#00406F;}
	.st1{fill:#FFFFFF;}
</style>
<g>
	<rect x="11.4" y="12.6" class="st0" width="270.5" height="270.5"/>
	<g>
		<rect y="304.9" class="st1" width="293.3" height="45.6"/>
		<g>
			<path class="st0" d="M61.8,339.2l-2.1-5.3H48.7l-2.2,5.3h-5.4l10.7-24.7h4.7l10.7,24.7H61.8z M54.1,320.5l-3.6,8.8h7.2
				L54.1,320.5z"/>
			<path class="st0" d="M85.7,314.4c5.7,0,9.2,3.4,9.2,8.3c0,5-3.5,8.3-9.2,8.3h-6.5v8.1h-5v-24.7H85.7z M85.7,326.5
				c2.7,0,4.2-1.5,4.2-3.8c0-2.2-1.5-3.8-4.2-3.8h-6.5v7.6H85.7z"/>
			<path class="st0" d="M128.1,326.8c0,7.2-5.7,12.9-13,12.9s-13-5.7-13-12.9c0-7.2,5.7-13,13-13S128.1,319.6,128.1,326.8z
				 M123.1,326.8c0-4.7-3.5-8.2-8-8.2s-8,3.5-8,8.2s3.5,8.2,8,8.2S123.1,331.6,123.1,326.8z"/>
			<path class="st0" d="M145.8,314.4c8.2,0,13.6,5,13.6,12.4c0,7.4-5.4,12.4-13.6,12.4h-9.1v-24.7H145.8z M145.8,334.6
				c5.1,0,8.5-3,8.5-7.8c0-4.8-3.4-7.8-8.5-7.8h-4.1v15.7H145.8z"/>
			<path class="st0" d="M185.2,339.2l-2.1-5.3h-10.9l-2.2,5.3h-5.4l10.7-24.7h4.7l10.7,24.7H185.2z M177.6,320.5l-3.6,8.8h7.2
				L177.6,320.5z"/>
			<path class="st0" d="M216.1,328.8l4.9,1c-1.2,6.4-6.2,9.9-12.2,9.9c-7.3,0-13-5.6-13-12.9c0-7.2,5.7-12.9,13-12.9
				c5.9,0,10.9,3.6,12.2,9.5l-4.9,1.4c-0.9-4.3-3.9-6.2-7.3-6.2c-4.4,0-7.9,3.5-7.9,8.2c0,4.7,3.5,8.2,7.9,8.2
				C212.2,335,215.2,333.1,216.1,328.8z"/>
			<path class="st0" d="M246.8,339.2l-2.1-5.3h-10.9l-2.2,5.3h-5.4l10.7-24.7h4.7l10.7,24.7H246.8z M239.2,320.5l-3.6,8.8h7.2
				L239.2,320.5z"/>
		</g>
		<g>
			<path class="st1" d="M62.7,181.3c9.9,0,16.1,6.1,16.1,15.1c0,9.2-6.4,15.3-16.6,15.3H51.9v13.4H41.1v-43.9H62.7z M61.5,202.7
				c4.2,0,6.8-2.4,6.8-6.2c0-3.5-2.6-6-6.8-6h-9.6v12.2H61.5z"/>
			<path class="st1" d="M124.5,225.2l-3.1-8H103l-3.1,8H88.3l18.4-43.9h11.1l18.4,43.9H124.5z M112.2,193.4l-5.6,14.4h11.2
				L112.2,193.4z"/>
			<path class="st1" d="M180.2,225.2L167,210.1h-3.1v15.1H153v-43.9h22.2c9.5,0,15.8,5.8,15.8,14.4c0,7.2-4.5,12.4-11.5,14
				l13.8,15.6H180.2z M174,201.1c3.9,0,6.4-2.1,6.4-5.3c0-3.1-2.5-5.2-6.4-5.2h-10.2v10.6H174z"/>
			<path class="st1" d="M238.1,225.2l-14.4-16.5h-2.3v16.5h-10.8v-43.9h10.8v17.4h1.6l14.9-17.4h13l-18.7,22l20,21.9H238.1z"/>
		</g>
		<path class="st1" d="M162.5,168.9h-25v-55.8l-29.4,55.8H96.2l-29.5-56.1v56.1h-25V64.2H67l35.2,66.4l35.2-66.4h25.2V168.9z"/>
		<g>
			<path class="st1" d="M168.2,150.7l17.9-17.9c7.3,7.5,15.1,11.7,24.5,11.7c8.1,0,13.2-4.1,13.2-10.4v-0.3c0-6.6-6-10.6-16.7-10.6
				h-12l-4.1-14.8l23.6-21.3h-39.3v-23h76.2v20.4l-26.5,21c14.7,3.2,26.5,11.4,26.5,28.9v0.3c0,20.8-16.7,34.2-39.6,34.2
				C192.1,168.9,178.2,161.7,168.2,150.7z"/>
		</g>
		<g>
			<path class="st1" d="M293.3,294.5H0V1.2h293.3V294.5z M11.4,283.1h270.5V12.6H11.4V283.1z"/>
		</g>
	</g>
</g>
</svg>
