<?xml version="1.0" encoding="utf-8"?>
<!-- Generator: Adobe Illustrator 26.0.0, SVG Export Plug-In . SVG Version: 6.00 Build 0)  -->
<svg version="1.1" id="Capa_1" xmlns="http://www.w3.org/2000/svg" xmlns:xlink="http://www.w3.org/1999/xlink" x="0px" y="0px"
	 viewBox="0 0 115.9 29" style="enable-background:new 0 0 115.9 29;" xml:space="preserve">
<style type="text/css">
	.st0{fill:#004071;}
</style>
<g>
	<path class="st0" d="M8.7,2.6v6.1H8.1V7.4c-0.2,0.4-0.5,0.8-0.9,1C6.8,8.6,6.4,8.8,5.8,8.8C5,8.8,4.4,8.5,3.9,8.1
		C3.5,7.7,3.3,7,3.3,6.2V2.6h0.6v3.5c0,0.7,0.2,1.2,0.5,1.6s0.9,0.5,1.5,0.5c0.7,0,1.2-0.2,1.6-0.6c0.4-0.4,0.6-1,0.6-1.7V2.6H8.7z"
		/>
	<path class="st0" d="M17.2,3.2c0.4,0.4,0.7,1.1,0.7,1.9v3.6h-0.6V5.2c0-0.7-0.2-1.2-0.5-1.6s-0.8-0.5-1.5-0.5
		c-0.7,0-1.3,0.2-1.7,0.6c-0.4,0.4-0.6,1-0.6,1.7v3.3h-0.6V2.6h0.6v1.3c0.2-0.4,0.5-0.8,0.9-1c0.4-0.2,0.9-0.4,1.5-0.4
		C16.1,2.5,16.7,2.8,17.2,3.2z"/>
	<path class="st0" d="M31.1,0v8.7h-0.6V7.3c-0.2,0.5-0.6,0.8-1,1.1S28.6,8.8,28,8.8c-0.6,0-1.1-0.1-1.6-0.4
		c-0.5-0.3-0.8-0.6-1.1-1.1c-0.3-0.5-0.4-1-0.4-1.6s0.1-1.1,0.4-1.6c0.3-0.5,0.6-0.8,1.1-1.1c0.5-0.3,1-0.4,1.6-0.4
		c0.5,0,1,0.1,1.5,0.4c0.4,0.3,0.8,0.6,1,1.1V0H31.1z M29.3,7.9C29.7,7.7,30,7.4,30.2,7s0.3-0.8,0.3-1.3s-0.1-0.9-0.3-1.3
		s-0.5-0.7-0.9-0.9c-0.4-0.2-0.8-0.3-1.3-0.3c-0.5,0-0.9,0.1-1.3,0.3c-0.4,0.2-0.7,0.5-0.9,0.9c-0.2,0.4-0.3,0.8-0.3,1.3
		s0.1,0.9,0.3,1.3c0.2,0.4,0.5,0.7,0.9,0.9c0.4,0.2,0.8,0.3,1.3,0.3C28.5,8.2,28.9,8.1,29.3,7.9z"/>
	<path class="st0" d="M39.9,5.8h-5.3c0,0.5,0.1,0.9,0.4,1.3c0.2,0.4,0.5,0.7,0.9,0.9c0.4,0.2,0.8,0.3,1.3,0.3c0.4,0,0.8-0.1,1.1-0.2
		s0.6-0.4,0.9-0.6l0.3,0.4c-0.3,0.3-0.6,0.6-1,0.7c-0.4,0.2-0.8,0.3-1.3,0.3c-0.6,0-1.2-0.1-1.6-0.4c-0.5-0.3-0.9-0.6-1.1-1.1
		c-0.3-0.5-0.4-1-0.4-1.6c0-0.6,0.1-1.1,0.4-1.6c0.3-0.5,0.6-0.8,1.1-1.1C36,2.7,36.5,2.5,37,2.5c0.6,0,1.1,0.1,1.5,0.4
		c0.4,0.3,0.8,0.6,1,1.1C39.8,4.5,40,5,40,5.6L39.9,5.8z M35.9,3.3c-0.3,0.2-0.6,0.5-0.8,0.8s-0.3,0.7-0.4,1.2h4.7
		c0-0.4-0.1-0.8-0.4-1.2c-0.2-0.3-0.5-0.6-0.8-0.8c-0.3-0.2-0.7-0.3-1.2-0.3C36.6,3.1,36.2,3.2,35.9,3.3z"/>
	<path class="st0" d="M43.1,8.5c-0.4-0.1-0.8-0.3-1-0.6l0.3-0.5c0.3,0.2,0.6,0.4,1,0.5s0.8,0.2,1.2,0.2c0.6,0,1.1-0.1,1.4-0.3
		c0.3-0.2,0.4-0.5,0.4-0.8c0-0.3-0.1-0.5-0.2-0.6s-0.4-0.3-0.6-0.3c-0.2-0.1-0.6-0.1-1-0.2c-0.5-0.1-0.9-0.2-1.2-0.3
		c-0.3-0.1-0.6-0.3-0.8-0.5s-0.3-0.5-0.3-0.9c0-0.5,0.2-0.9,0.6-1.2c0.4-0.3,1-0.5,1.7-0.5c0.4,0,0.8,0.1,1.2,0.2
		c0.4,0.1,0.7,0.3,0.9,0.4l-0.3,0.5c-0.3-0.2-0.5-0.3-0.9-0.4c-0.3-0.1-0.7-0.1-1-0.1c-0.6,0-1,0.1-1.3,0.3
		c-0.3,0.2-0.4,0.5-0.4,0.8c0,0.3,0.1,0.5,0.2,0.6s0.4,0.3,0.6,0.3c0.2,0.1,0.6,0.2,1,0.2c0.5,0.1,0.9,0.2,1.2,0.3
		c0.3,0.1,0.5,0.3,0.7,0.5s0.3,0.5,0.3,0.9c0,0.5-0.2,0.9-0.6,1.2c-0.4,0.3-1,0.5-1.8,0.5C44,8.8,43.5,8.7,43.1,8.5z"/>
	<path class="st0" d="M53.6,3.1c0.4,0.4,0.6,1,0.6,1.7v3.9h-0.6V7.6c-0.2,0.4-0.5,0.6-0.9,0.8c-0.4,0.2-0.8,0.3-1.4,0.3
		c-0.7,0-1.2-0.2-1.6-0.5C49.4,8,49.2,7.5,49.2,7c0-0.5,0.2-0.9,0.5-1.2c0.4-0.3,0.9-0.5,1.7-0.5h2.1V4.8c0-0.6-0.2-1-0.5-1.3
		s-0.8-0.4-1.4-0.4c-0.4,0-0.8,0.1-1.2,0.2c-0.4,0.1-0.7,0.3-0.9,0.6l-0.3-0.4c0.3-0.3,0.7-0.5,1.1-0.6c0.4-0.2,0.9-0.2,1.4-0.2
		C52.6,2.5,53.2,2.7,53.6,3.1z M52.8,7.9c0.4-0.2,0.6-0.6,0.8-1V5.8h-2.1c-0.6,0-1,0.1-1.3,0.3c-0.3,0.2-0.4,0.5-0.4,0.9
		c0,0.4,0.1,0.7,0.4,0.9c0.3,0.2,0.7,0.3,1.3,0.3C52,8.3,52.4,8.2,52.8,7.9z"/>
	<path class="st0" d="M59.2,2.9c0.4-0.2,0.9-0.4,1.5-0.4v0.6l-0.1,0c-0.7,0-1.2,0.2-1.6,0.6c-0.4,0.4-0.6,1-0.6,1.8v3.2h-0.6V2.6
		h0.6v1.3C58.5,3.5,58.8,3.1,59.2,2.9z"/>
	<path class="st0" d="M64.9,2.9c0.4-0.2,0.9-0.4,1.5-0.4v0.6l-0.1,0c-0.7,0-1.2,0.2-1.6,0.6c-0.4,0.4-0.6,1-0.6,1.8v3.2h-0.6V2.6H64
		v1.3C64.2,3.5,64.5,3.1,64.9,2.9z"/>
	<path class="st0" d="M69.9,8.4c-0.5-0.3-0.8-0.6-1.1-1.1c-0.3-0.5-0.4-1-0.4-1.6s0.1-1.1,0.4-1.6c0.3-0.5,0.6-0.8,1.1-1.1
		c0.5-0.3,1-0.4,1.6-0.4c0.6,0,1.1,0.1,1.6,0.4c0.5,0.3,0.8,0.6,1.1,1.1c0.3,0.5,0.4,1,0.4,1.6s-0.1,1.1-0.4,1.6
		c-0.3,0.5-0.6,0.8-1.1,1.1c-0.5,0.3-1,0.4-1.6,0.4C70.9,8.8,70.4,8.6,69.9,8.4z M72.8,7.9c0.4-0.2,0.7-0.5,0.9-0.9S74,6.2,74,5.7
		s-0.1-0.9-0.3-1.3s-0.5-0.7-0.9-0.9c-0.4-0.2-0.8-0.3-1.3-0.3c-0.5,0-0.9,0.1-1.3,0.3c-0.4,0.2-0.7,0.5-0.9,0.9
		C69.1,4.7,69,5.2,69,5.7s0.1,0.9,0.3,1.3c0.2,0.4,0.5,0.7,0.9,0.9c0.4,0.2,0.8,0.3,1.3,0.3C72,8.2,72.4,8.1,72.8,7.9z"/>
	<path class="st0" d="M77.6,0h0.6v8.7h-0.6V0z"/>
	<path class="st0" d="M81.8,0h0.6v8.7h-0.6V0z"/>
	<path class="st0" d="M86.9,8.4c-0.5-0.3-0.8-0.6-1.1-1.1c-0.3-0.5-0.4-1-0.4-1.6s0.1-1.1,0.4-1.6c0.3-0.5,0.6-0.8,1.1-1.1
		c0.5-0.3,1-0.4,1.6-0.4c0.6,0,1.1,0.1,1.6,0.4c0.5,0.3,0.8,0.6,1.1,1.1c0.3,0.5,0.4,1,0.4,1.6s-0.1,1.1-0.4,1.6
		c-0.3,0.5-0.6,0.8-1.1,1.1c-0.5,0.3-1,0.4-1.6,0.4C87.9,8.8,87.3,8.6,86.9,8.4z M89.7,7.9c0.4-0.2,0.7-0.5,0.9-0.9s0.3-0.8,0.3-1.3
		s-0.1-0.9-0.3-1.3s-0.5-0.7-0.9-0.9c-0.4-0.2-0.8-0.3-1.3-0.3c-0.5,0-0.9,0.1-1.3,0.3c-0.4,0.2-0.7,0.5-0.9,0.9
		C86.1,4.7,86,5.2,86,5.7s0.1,0.9,0.3,1.3c0.2,0.4,0.5,0.7,0.9,0.9c0.4,0.2,0.8,0.3,1.3,0.3C88.9,8.2,89.3,8.1,89.7,7.9z"/>
	<path class="st0" d="M104.1,0v8.7h-0.6V7.3c-0.2,0.5-0.6,0.8-1,1.1s-0.9,0.4-1.5,0.4c-0.6,0-1.1-0.1-1.6-0.4
		c-0.5-0.3-0.8-0.6-1.1-1.1c-0.3-0.5-0.4-1-0.4-1.6s0.1-1.1,0.4-1.6c0.3-0.5,0.6-0.8,1.1-1.1c0.5-0.3,1-0.4,1.6-0.4
		c0.5,0,1,0.1,1.5,0.4c0.4,0.3,0.8,0.6,1,1.1V0H104.1z M102.4,7.9c0.4-0.2,0.7-0.5,0.9-0.9s0.3-0.8,0.3-1.3s-0.1-0.9-0.3-1.3
		s-0.5-0.7-0.9-0.9c-0.4-0.2-0.8-0.3-1.3-0.3c-0.5,0-0.9,0.1-1.3,0.3c-0.4,0.2-0.7,0.5-0.9,0.9c-0.2,0.4-0.3,0.8-0.3,1.3
		s0.1,0.9,0.3,1.3c0.2,0.4,0.5,0.7,0.9,0.9c0.4,0.2,0.8,0.3,1.3,0.3C101.6,8.2,102,8.1,102.4,7.9z"/>
	<path class="st0" d="M113,5.8h-5.3c0,0.5,0.1,0.9,0.4,1.3c0.2,0.4,0.5,0.7,0.9,0.9c0.4,0.2,0.8,0.3,1.3,0.3c0.4,0,0.8-0.1,1.1-0.2
		s0.6-0.4,0.9-0.6l0.3,0.4c-0.3,0.3-0.6,0.6-1,0.7s-0.8,0.3-1.3,0.3c-0.6,0-1.2-0.1-1.6-0.4c-0.5-0.3-0.9-0.6-1.1-1.1
		c-0.3-0.5-0.4-1-0.4-1.6c0-0.6,0.1-1.1,0.4-1.6c0.3-0.5,0.6-0.8,1.1-1.1c0.4-0.3,0.9-0.4,1.5-0.4c0.6,0,1.1,0.1,1.5,0.4
		c0.4,0.3,0.8,0.6,1,1.1s0.4,1,0.4,1.6L113,5.8z M108.9,3.3c-0.3,0.2-0.6,0.5-0.8,0.8c-0.2,0.3-0.3,0.7-0.4,1.2h4.7
		c0-0.4-0.1-0.8-0.4-1.2c-0.2-0.3-0.5-0.6-0.8-0.8s-0.7-0.3-1.2-0.3C109.6,3.1,109.2,3.2,108.9,3.3z"/>
</g>
<g>
	<path class="st0" d="M10.2,17H9.7c-0.2,0-0.4,0.1-0.5,0.3l-3.5,5.9l-3.5-5.9C2.2,17.1,2,17,1.8,17H1.3c-0.3,0-0.5,0.2-0.5,0.5v9.9
		C0.7,27.7,1,28,1.3,28h0.6c0.3,0,0.5-0.2,0.5-0.5v-6.8l2.7,4.6c0.1,0.2,0.3,0.3,0.5,0.3h0.3c0.2,0,0.4-0.1,0.5-0.3l2.7-4.6v6.8
		c0,0.3,0.2,0.5,0.5,0.5h0.6c0.3,0,0.5-0.2,0.5-0.5v-9.9C10.7,17.2,10.5,17,10.2,17"/>
	<path class="st0" d="M34.1,17h-7.6c-0.3,0-0.5,0.2-0.5,0.5V18c0,0.3,0.2,0.5,0.5,0.5h2.9v8.9c0,0.3,0.2,0.5,0.5,0.5h0.6
		c0.3,0,0.5-0.2,0.5-0.5v-8.9h3c0.3,0,0.5-0.2,0.5-0.5v-0.5C34.6,17.2,34.4,17,34.1,17"/>
	<path class="st0" d="M39.9,18.6h1.6c1.1,0,2.5,0.3,2.5,1.9c0,1.6-1.4,1.9-2.5,1.9h-1.6V18.6z M43.7,23.6c1.3-0.6,2-1.7,2-3.1
		c0-2.2-1.6-3.5-4.2-3.5h-2.7c-0.3,0-0.5,0.2-0.5,0.5v9.9c0,0.3,0.2,0.5,0.5,0.5h0.6c0.3,0,0.5-0.2,0.5-0.5V24h1.6
		c0.2,0,0.3,0,0.5,0l2.4,3.7c0.1,0.2,0.3,0.3,0.5,0.3h0.7c0.2,0,0.4-0.1,0.5-0.3c0.1-0.2,0.1-0.4,0-0.5L43.7,23.6z"/>
	<path class="st0" d="M53.5,16.1c0.1,0.2,0.3,0.3,0.5,0.3c0.1,0,0.2,0,0.2-0.1l2.9-1.5c0.1-0.1,0.2-0.2,0.3-0.3c0-0.1,0-0.3,0-0.4
		l-0.2-0.4c-0.1-0.3-0.5-0.3-0.7-0.2L53.5,15c-0.1,0.1-0.2,0.2-0.3,0.3c0,0.1,0,0.3,0.1,0.4L53.5,16.1z"/>
	<path class="st0" d="M54.9,18.4c2.4,0,4.1,1.7,4.1,4.1c0,2.4-1.7,4.1-4.1,4.1c-2.4,0-4.1-1.7-4.1-4.1
		C50.8,20.1,52.5,18.4,54.9,18.4 M54.9,16.8c-3.2,0-5.7,2.5-5.7,5.7c0,3.2,2.5,5.7,5.7,5.7c3.2,0,5.8-2.5,5.8-5.7
		C60.6,19.3,58.1,16.8,54.9,16.8"/>
	<path class="st0" d="M80.8,26.6c-2.4,0-4.1-1.7-4.1-4.1c0-2.4,1.7-4.1,4.1-4.1c2.4,0,4.1,1.7,4.1,4.1
		C84.9,24.8,83.2,26.6,80.8,26.6 M80.8,16.8c-3.2,0-5.7,2.5-5.7,5.7c0,3.2,2.5,5.7,5.7,5.7c3.2,0,5.8-2.5,5.8-5.7
		C86.5,19.3,84,16.8,80.8,16.8"/>
	<path class="st0" d="M97.2,26.4h-5.1v-8.9c0-0.3-0.2-0.5-0.5-0.5H91c-0.3,0-0.5,0.2-0.5,0.5v9.9c0,0.3,0.2,0.5,0.5,0.5h6.2
		c0.3,0,0.5-0.2,0.5-0.5v-0.5C97.8,26.6,97.5,26.4,97.2,26.4"/>
	<path class="st0" d="M102.4,17h-0.6c-0.3,0-0.5,0.2-0.5,0.5v9.9c0,0.3,0.2,0.5,0.5,0.5h0.6c0.3,0,0.5-0.2,0.5-0.5v-9.9
		C102.9,17.2,102.7,17,102.4,17"/>
	<path class="st0" d="M111.3,21.4l-0.3-0.1c-1.5-0.4-2.3-0.7-2.3-1.5c0-1.4,1.7-1.5,2.2-1.5c1.3,0,2.2,0.7,2.4,1.8
		c0,0.2,0.1,0.3,0.2,0.4c0.1,0.1,0.3,0.1,0.4,0.1l0.5-0.1c0.3-0.1,0.4-0.3,0.4-0.6c-0.3-1.8-1.9-3.1-4-3.1c-2.3,0-3.9,1.3-3.9,3.1
		c0,2,2,2.6,3.2,2.9l0.4,0.1c1.6,0.4,2.7,0.8,2.7,1.9c0,1-1,1.7-2.4,1.7c-1.5,0-2.5-0.8-2.5-2c0-0.2-0.1-0.3-0.2-0.4
		c-0.1-0.1-0.3-0.1-0.5-0.1l-0.5,0.1c-0.3,0.1-0.4,0.3-0.4,0.6c0.2,1.7,1.5,3.4,4.1,3.4c2.4,0,4.1-1.4,4.1-3.3
		C115,22.4,112.6,21.8,111.3,21.4"/>
	<path class="st0" d="M18,21.3c-0.3,0-0.5,0.2-0.5,0.5v0.5c0,0.3,0.2,0.5,0.5,0.5h3.2c0.3,0,0.5-0.2,0.5-0.5v-0.5
		c0-0.3-0.2-0.5-0.5-0.5H18z"/>
	<path class="st0" d="M22.4,26.4H17l0-4l0-3.8h5.3c0.3,0,0.5-0.2,0.5-0.5v-0.5c0-0.3-0.2-0.5-0.5-0.5h-6.4c-0.3,0-0.5,0.2-0.5,0.5
		v9.9c0,0.3,0.2,0.5,0.5,0.5h6.5c0.3,0,0.5-0.2,0.5-0.5v-0.5C22.9,26.6,22.7,26.4,22.4,26.4"/>
	<path class="st0" d="M67.8,17h-2.7c-0.3,0-0.5,0.2-0.5,0.5v9.9c0,0.3,0.2,0.5,0.5,0.5h0.6c0.3,0,0.5-0.2,0.5-0.5v-8.9h1.6
		c1.1,0,2.5,0.3,2.5,2c0,1.6-1.4,2-2.5,2h-0.4c-0.3,0-0.5,0.2-0.5,0.5v0.5c0,0.3,0.2,0.5,0.5,0.5h0.4c2.6,0,4.2-1.4,4.2-3.6
		C71.9,18.3,70.4,17,67.8,17"/>
</g>
</svg>
